<mxfile host="app.diagrams.net" modified="2022-09-19T18:18:05.920Z" agent="5.0 (Windows NT 10.0; Win64; x64) AppleWebKit/537.36 (KHTML, like Gecko) Chrome/104.0.0.0 Safari/537.36" etag="kADAtXoyl6mHjAg95qIk" version="20.3.3" type="github" pages="2">
  <diagram id="X23JDJrkGlDaqkT33M_K" name="Page-1">
    <mxGraphModel dx="1422" dy="828" grid="1" gridSize="10" guides="1" tooltips="1" connect="1" arrows="1" fold="1" page="1" pageScale="1" pageWidth="850" pageHeight="1100" math="0" shadow="0">
      <root>
        <mxCell id="0" />
        <mxCell id="1" parent="0" />
        <mxCell id="Ic7HxsfE4ANWLKzLswhk-14" value="Control Software" style="rounded=1;whiteSpace=wrap;html=1;" vertex="1" parent="1">
          <mxGeometry x="600" y="580" width="120" height="60" as="geometry" />
        </mxCell>
        <mxCell id="Ic7HxsfE4ANWLKzLswhk-13" value="Job Processor" style="rounded=1;whiteSpace=wrap;html=1;" vertex="1" parent="1">
          <mxGeometry x="600" y="530" width="120" height="60" as="geometry" />
        </mxCell>
        <mxCell id="Ic7HxsfE4ANWLKzLswhk-1" value="Database" style="rounded=1;whiteSpace=wrap;html=1;" vertex="1" parent="1">
          <mxGeometry x="600" y="480" width="120" height="60" as="geometry" />
        </mxCell>
        <mxCell id="Ic7HxsfE4ANWLKzLswhk-2" value="Server" style="rounded=1;whiteSpace=wrap;html=1;fillColor=#ffe6cc;strokeColor=#d79b00;" vertex="1" parent="1">
          <mxGeometry x="600" y="430" width="120" height="60" as="geometry" />
        </mxCell>
        <mxCell id="Ic7HxsfE4ANWLKzLswhk-8" style="edgeStyle=orthogonalEdgeStyle;rounded=0;orthogonalLoop=1;jettySize=auto;html=1;exitX=0.5;exitY=1;exitDx=0;exitDy=0;entryX=0.5;entryY=0;entryDx=0;entryDy=0;" edge="1" parent="1" source="Ic7HxsfE4ANWLKzLswhk-3" target="Ic7HxsfE4ANWLKzLswhk-4">
          <mxGeometry relative="1" as="geometry" />
        </mxCell>
        <mxCell id="Ic7HxsfE4ANWLKzLswhk-9" style="edgeStyle=orthogonalEdgeStyle;rounded=0;orthogonalLoop=1;jettySize=auto;html=1;exitX=0.5;exitY=1;exitDx=0;exitDy=0;entryX=0.5;entryY=0;entryDx=0;entryDy=0;" edge="1" parent="1" source="Ic7HxsfE4ANWLKzLswhk-3" target="Ic7HxsfE4ANWLKzLswhk-6">
          <mxGeometry relative="1" as="geometry" />
        </mxCell>
        <mxCell id="Ic7HxsfE4ANWLKzLswhk-10" style="edgeStyle=orthogonalEdgeStyle;rounded=0;orthogonalLoop=1;jettySize=auto;html=1;exitX=1;exitY=0.5;exitDx=0;exitDy=0;entryX=0;entryY=0.5;entryDx=0;entryDy=0;startArrow=classic;startFill=1;" edge="1" parent="1" source="Ic7HxsfE4ANWLKzLswhk-3" target="Ic7HxsfE4ANWLKzLswhk-2">
          <mxGeometry relative="1" as="geometry" />
        </mxCell>
        <mxCell id="Ic7HxsfE4ANWLKzLswhk-3" value="Control Software (client)" style="rounded=1;whiteSpace=wrap;html=1;" vertex="1" parent="1">
          <mxGeometry x="365" y="430" width="120" height="60" as="geometry" />
        </mxCell>
        <mxCell id="Ic7HxsfE4ANWLKzLswhk-4" value="RGU" style="rounded=1;whiteSpace=wrap;html=1;" vertex="1" parent="1">
          <mxGeometry x="280" y="560" width="120" height="60" as="geometry" />
        </mxCell>
        <mxCell id="Ic7HxsfE4ANWLKzLswhk-6" value="Deskset" style="rounded=1;whiteSpace=wrap;html=1;" vertex="1" parent="1">
          <mxGeometry x="450" y="560" width="120" height="60" as="geometry" />
        </mxCell>
        <mxCell id="Ic7HxsfE4ANWLKzLswhk-12" style="edgeStyle=orthogonalEdgeStyle;rounded=0;orthogonalLoop=1;jettySize=auto;html=1;exitX=0.5;exitY=1;exitDx=0;exitDy=0;entryX=0.5;entryY=0;entryDx=0;entryDy=0;startArrow=none;startFill=0;" edge="1" parent="1" source="Ic7HxsfE4ANWLKzLswhk-11" target="Ic7HxsfE4ANWLKzLswhk-3">
          <mxGeometry relative="1" as="geometry" />
        </mxCell>
        <mxCell id="Ic7HxsfE4ANWLKzLswhk-11" value="System Admin" style="ellipse;whiteSpace=wrap;html=1;aspect=fixed;" vertex="1" parent="1">
          <mxGeometry x="385" y="300" width="80" height="80" as="geometry" />
        </mxCell>
      </root>
    </mxGraphModel>
  </diagram>
  <diagram id="FjAThEfoLPS8CmatDrUR" name="Page-2">
    <mxGraphModel dx="2272" dy="828" grid="1" gridSize="10" guides="1" tooltips="1" connect="1" arrows="1" fold="1" page="1" pageScale="1" pageWidth="850" pageHeight="1100" math="0" shadow="0">
      <root>
        <mxCell id="0" />
        <mxCell id="1" parent="0" />
        <mxCell id="OHS2cAplve4kIaxLTFYX-5" value="" style="rounded=0;whiteSpace=wrap;html=1;fillColor=#f5f5f5;fontColor=#333333;strokeColor=#666666;" vertex="1" parent="1">
          <mxGeometry x="-265" y="430" width="605" height="590" as="geometry" />
        </mxCell>
        <mxCell id="nxtKlIL2Tm7DKC-mXn0q-8" style="edgeStyle=orthogonalEdgeStyle;rounded=0;orthogonalLoop=1;jettySize=auto;html=1;exitX=0.5;exitY=0;exitDx=0;exitDy=0;entryX=0.492;entryY=0.963;entryDx=0;entryDy=0;entryPerimeter=0;startArrow=none;startFill=0;" edge="1" parent="1" source="nxtKlIL2Tm7DKC-mXn0q-3" target="nxtKlIL2Tm7DKC-mXn0q-7">
          <mxGeometry relative="1" as="geometry" />
        </mxCell>
        <mxCell id="nxtKlIL2Tm7DKC-mXn0q-3" value="Consolette (Rack Radio)" style="rounded=1;whiteSpace=wrap;html=1;fillColor=#d5e8d4;strokeColor=#82b366;" vertex="1" parent="1">
          <mxGeometry x="360" y="696" width="120" height="60" as="geometry" />
        </mxCell>
        <mxCell id="nxtKlIL2Tm7DKC-mXn0q-9" style="edgeStyle=orthogonalEdgeStyle;rounded=0;orthogonalLoop=1;jettySize=auto;html=1;exitX=0.5;exitY=0;exitDx=0;exitDy=0;entryX=0.5;entryY=1;entryDx=0;entryDy=0;startArrow=none;startFill=0;" edge="1" parent="1" source="nxtKlIL2Tm7DKC-mXn0q-4" target="nxtKlIL2Tm7DKC-mXn0q-3">
          <mxGeometry relative="1" as="geometry" />
        </mxCell>
        <mxCell id="nxtKlIL2Tm7DKC-mXn0q-4" value="RGU" style="rounded=1;whiteSpace=wrap;html=1;fillColor=#d5e8d4;strokeColor=#82b366;" vertex="1" parent="1">
          <mxGeometry x="360" y="796" width="120" height="60" as="geometry" />
        </mxCell>
        <mxCell id="nxtKlIL2Tm7DKC-mXn0q-10" style="edgeStyle=orthogonalEdgeStyle;rounded=0;orthogonalLoop=1;jettySize=auto;html=1;exitX=0.5;exitY=0;exitDx=0;exitDy=0;entryX=0.5;entryY=1;entryDx=0;entryDy=0;startArrow=none;startFill=0;" edge="1" parent="1" source="nxtKlIL2Tm7DKC-mXn0q-5" target="nxtKlIL2Tm7DKC-mXn0q-4">
          <mxGeometry relative="1" as="geometry" />
        </mxCell>
        <mxCell id="nxtKlIL2Tm7DKC-mXn0q-5" value="SWITCH" style="rounded=1;whiteSpace=wrap;html=1;fillColor=#d5e8d4;strokeColor=#82b366;" vertex="1" parent="1">
          <mxGeometry x="360" y="896" width="120" height="60" as="geometry" />
        </mxCell>
        <mxCell id="nxtKlIL2Tm7DKC-mXn0q-11" style="edgeStyle=orthogonalEdgeStyle;rounded=0;orthogonalLoop=1;jettySize=auto;html=1;exitX=0;exitY=0.5;exitDx=0;exitDy=0;entryX=1;entryY=0.5;entryDx=0;entryDy=0;startArrow=none;startFill=0;" edge="1" parent="1" source="nxtKlIL2Tm7DKC-mXn0q-6" target="nxtKlIL2Tm7DKC-mXn0q-5">
          <mxGeometry relative="1" as="geometry" />
        </mxCell>
        <mxCell id="nxtKlIL2Tm7DKC-mXn0q-6" value="Deskset" style="ellipse;whiteSpace=wrap;html=1;fillColor=#d5e8d4;strokeColor=#82b366;" vertex="1" parent="1">
          <mxGeometry x="540" y="886" width="120" height="80" as="geometry" />
        </mxCell>
        <mxCell id="nxtKlIL2Tm7DKC-mXn0q-7" value="RF" style="ellipse;shape=cloud;whiteSpace=wrap;html=1;" vertex="1" parent="1">
          <mxGeometry x="361" y="576" width="120" height="80" as="geometry" />
        </mxCell>
        <mxCell id="nxtKlIL2Tm7DKC-mXn0q-13" style="edgeStyle=orthogonalEdgeStyle;rounded=0;orthogonalLoop=1;jettySize=auto;html=1;exitX=0;exitY=0.5;exitDx=0;exitDy=0;entryX=0.875;entryY=0.5;entryDx=0;entryDy=0;entryPerimeter=0;startArrow=none;startFill=0;" edge="1" parent="1" source="nxtKlIL2Tm7DKC-mXn0q-12" target="nxtKlIL2Tm7DKC-mXn0q-7">
          <mxGeometry relative="1" as="geometry" />
        </mxCell>
        <mxCell id="nxtKlIL2Tm7DKC-mXn0q-12" value="Handset" style="ellipse;whiteSpace=wrap;html=1;" vertex="1" parent="1">
          <mxGeometry x="540" y="576" width="120" height="80" as="geometry" />
        </mxCell>
        <mxCell id="OHS2cAplve4kIaxLTFYX-8" style="edgeStyle=orthogonalEdgeStyle;rounded=0;orthogonalLoop=1;jettySize=auto;html=1;exitX=0.5;exitY=0;exitDx=0;exitDy=0;entryX=0.55;entryY=0.95;entryDx=0;entryDy=0;entryPerimeter=0;startArrow=none;startFill=0;" edge="1" parent="1" source="OHS2cAplve4kIaxLTFYX-1" target="OHS2cAplve4kIaxLTFYX-7">
          <mxGeometry relative="1" as="geometry" />
        </mxCell>
        <mxCell id="OHS2cAplve4kIaxLTFYX-1" value="Router" style="ellipse;whiteSpace=wrap;html=1;aspect=fixed;fillColor=#d5e8d4;strokeColor=#82b366;" vertex="1" parent="1">
          <mxGeometry x="-70" y="440" width="80" height="80" as="geometry" />
        </mxCell>
        <mxCell id="OHS2cAplve4kIaxLTFYX-15" style="edgeStyle=orthogonalEdgeStyle;rounded=0;orthogonalLoop=1;jettySize=auto;html=1;exitX=1;exitY=0.5;exitDx=0;exitDy=0;entryX=0;entryY=0.5;entryDx=0;entryDy=0;startArrow=none;startFill=0;" edge="1" parent="1" source="OHS2cAplve4kIaxLTFYX-2" target="OHS2cAplve4kIaxLTFYX-14">
          <mxGeometry relative="1" as="geometry" />
        </mxCell>
        <mxCell id="OHS2cAplve4kIaxLTFYX-2" value="RGU" style="rounded=1;whiteSpace=wrap;html=1;fillColor=#d5e8d4;strokeColor=#82b366;" vertex="1" parent="1">
          <mxGeometry x="60" y="590" width="120" height="60" as="geometry" />
        </mxCell>
        <mxCell id="OHS2cAplve4kIaxLTFYX-6" style="edgeStyle=orthogonalEdgeStyle;rounded=0;orthogonalLoop=1;jettySize=auto;html=1;exitX=0.5;exitY=0;exitDx=0;exitDy=0;entryX=0.5;entryY=1;entryDx=0;entryDy=0;startArrow=none;startFill=0;" edge="1" parent="1" source="OHS2cAplve4kIaxLTFYX-3" target="OHS2cAplve4kIaxLTFYX-1">
          <mxGeometry relative="1" as="geometry" />
        </mxCell>
        <mxCell id="OHS2cAplve4kIaxLTFYX-12" style="edgeStyle=orthogonalEdgeStyle;rounded=0;orthogonalLoop=1;jettySize=auto;html=1;exitX=1;exitY=0.5;exitDx=0;exitDy=0;entryX=0;entryY=0.5;entryDx=0;entryDy=0;startArrow=none;startFill=0;" edge="1" parent="1" source="OHS2cAplve4kIaxLTFYX-3" target="OHS2cAplve4kIaxLTFYX-2">
          <mxGeometry relative="1" as="geometry" />
        </mxCell>
        <mxCell id="OHS2cAplve4kIaxLTFYX-3" value="Switch" style="rounded=1;whiteSpace=wrap;html=1;fillColor=#d5e8d4;strokeColor=#82b366;" vertex="1" parent="1">
          <mxGeometry x="-90" y="590" width="120" height="60" as="geometry" />
        </mxCell>
        <mxCell id="OHS2cAplve4kIaxLTFYX-9" style="edgeStyle=orthogonalEdgeStyle;rounded=0;orthogonalLoop=1;jettySize=auto;html=1;exitX=1;exitY=0.5;exitDx=0;exitDy=0;entryX=0;entryY=0.5;entryDx=0;entryDy=0;startArrow=none;startFill=0;" edge="1" parent="1" source="OHS2cAplve4kIaxLTFYX-4" target="OHS2cAplve4kIaxLTFYX-3">
          <mxGeometry relative="1" as="geometry" />
        </mxCell>
        <mxCell id="OHS2cAplve4kIaxLTFYX-4" value="Server" style="rounded=1;whiteSpace=wrap;html=1;fillColor=#d5e8d4;strokeColor=#82b366;verticalAlign=top;" vertex="1" parent="1">
          <mxGeometry x="-250" y="590" width="120" height="100" as="geometry" />
        </mxCell>
        <mxCell id="OHS2cAplve4kIaxLTFYX-7" value="Commercial" style="ellipse;shape=cloud;whiteSpace=wrap;html=1;fillColor=#d5e8d4;strokeColor=#82b366;" vertex="1" parent="1">
          <mxGeometry x="-96" y="319" width="120" height="80" as="geometry" />
        </mxCell>
        <mxCell id="OHS2cAplve4kIaxLTFYX-11" style="edgeStyle=orthogonalEdgeStyle;rounded=0;orthogonalLoop=1;jettySize=auto;html=1;exitX=0.5;exitY=0;exitDx=0;exitDy=0;entryX=0.5;entryY=1;entryDx=0;entryDy=0;startArrow=none;startFill=0;" edge="1" parent="1" source="OHS2cAplve4kIaxLTFYX-10" target="OHS2cAplve4kIaxLTFYX-3">
          <mxGeometry relative="1" as="geometry" />
        </mxCell>
        <mxCell id="OHS2cAplve4kIaxLTFYX-10" value="Laptops&lt;br&gt;" style="rounded=1;whiteSpace=wrap;html=1;fillColor=#d5e8d4;strokeColor=#82b366;verticalAlign=top;" vertex="1" parent="1">
          <mxGeometry x="-90" y="690" width="120" height="70" as="geometry" />
        </mxCell>
        <mxCell id="OHS2cAplve4kIaxLTFYX-16" style="edgeStyle=orthogonalEdgeStyle;rounded=0;orthogonalLoop=1;jettySize=auto;html=1;exitX=1;exitY=0.5;exitDx=0;exitDy=0;entryX=0.16;entryY=0.55;entryDx=0;entryDy=0;entryPerimeter=0;startArrow=none;startFill=0;" edge="1" parent="1" source="OHS2cAplve4kIaxLTFYX-14" target="nxtKlIL2Tm7DKC-mXn0q-7">
          <mxGeometry relative="1" as="geometry" />
        </mxCell>
        <mxCell id="OHS2cAplve4kIaxLTFYX-14" value="Consolette (Rack Radio)" style="rounded=1;whiteSpace=wrap;html=1;fillColor=#d5e8d4;strokeColor=#82b366;" vertex="1" parent="1">
          <mxGeometry x="200" y="590" width="120" height="60" as="geometry" />
        </mxCell>
        <mxCell id="OHS2cAplve4kIaxLTFYX-19" style="edgeStyle=orthogonalEdgeStyle;rounded=0;orthogonalLoop=1;jettySize=auto;html=1;exitX=0.5;exitY=0;exitDx=0;exitDy=0;entryX=0.5;entryY=1;entryDx=0;entryDy=0;startArrow=none;startFill=0;" edge="1" parent="1" source="9-Kt90PSR1dP_ZBtkINv-5" target="OHS2cAplve4kIaxLTFYX-10">
          <mxGeometry relative="1" as="geometry">
            <mxPoint x="-142.5" y="820" as="sourcePoint" />
            <Array as="points">
              <mxPoint x="-130" y="820" />
              <mxPoint x="-30" y="820" />
            </Array>
          </mxGeometry>
        </mxCell>
        <mxCell id="9-Kt90PSR1dP_ZBtkINv-4" style="edgeStyle=orthogonalEdgeStyle;rounded=0;orthogonalLoop=1;jettySize=auto;html=1;exitX=0.5;exitY=0;exitDx=0;exitDy=0;entryX=0.5;entryY=1;entryDx=0;entryDy=0;startArrow=none;startFill=0;" edge="1" parent="1" source="9-Kt90PSR1dP_ZBtkINv-5" target="OHS2cAplve4kIaxLTFYX-4">
          <mxGeometry relative="1" as="geometry">
            <mxPoint x="-142.5" y="820" as="sourcePoint" />
            <Array as="points">
              <mxPoint x="-130" y="820" />
              <mxPoint x="-190" y="820" />
            </Array>
          </mxGeometry>
        </mxCell>
        <mxCell id="e0EYs4RKhFBc3j67pU9K-1" value="Database&lt;br&gt;Control Software&lt;br&gt;Job Processor" style="rounded=1;whiteSpace=wrap;html=1;fillColor=#ffe6cc;strokeColor=#d79b00;" vertex="1" parent="1">
          <mxGeometry x="-240" y="620" width="100" height="60" as="geometry" />
        </mxCell>
        <mxCell id="9-Kt90PSR1dP_ZBtkINv-2" value="Control Software" style="rounded=1;whiteSpace=wrap;html=1;fillColor=#ffe6cc;strokeColor=#d79b00;" vertex="1" parent="1">
          <mxGeometry x="-80" y="720" width="100" height="30" as="geometry" />
        </mxCell>
        <mxCell id="9-Kt90PSR1dP_ZBtkINv-5" value="Admin" style="ellipse;whiteSpace=wrap;html=1;aspect=fixed;fillColor=#fff2cc;strokeColor=#d6b656;" vertex="1" parent="1">
          <mxGeometry x="-170" y="876" width="80" height="80" as="geometry" />
        </mxCell>
      </root>
    </mxGraphModel>
  </diagram>
</mxfile>
